<svg width="396" height="110.9081756103283" viewBox="0 0 370 103.62632569651888"
  class="looka-1j8o68f">
  <defs id="SvgjsDefs1011"></defs>
  <g id="SvgjsG1012" featurekey="HdFLvg-0"
    transform="matrix(1.2007683994313867,0,0,1.2007683994313867,-10.042035184808052,-8.224063885364142)"
    fill="#fcfcfc">
    <path xmlns="http://www.w3.org/2000/svg"
      d="M89.28,50.602h-3.826c-1.695-5.234-4.973-9.871-9.367-13.491c-0.924-3.314,0.241-6.345,1.603-8.518  c0.96-1.531-0.283-3.482-2.075-3.259c-7.359,0.915-10.325,4.7-11.611,7.301c-0.044,0.089-0.082,0.183-0.116,0.28  c-0.026,0.052-0.052,0.104-0.077,0.157c-0.157,0.439-0.328,0.871-0.511,1.296c-0.001,0.003-0.002,0.006-0.003,0.008  c-0.013,0.041-0.026,0.07-0.038,0.089c-3.552,8.143-11.776,13.811-21.222,13.811c-6.591,0-12.532-2.778-16.719-7.225  c-1.711,2.013-3.139,4.221-4.232,6.579c-3.182-0.579-5.221-1.814-6.488-3.152c2.095-0.916,3.938-2.194,4.535-3.413  c1.242-2.537-0.532-4.163-0.532-4.163s-5.117-4.996-7.358,2.469c-0.54,1.8-0.264,3.465,0.466,4.956  c-1.81,0.802-3.346,1.361-3.346,1.361c1.047,0.198,2.452,0.029,3.906-0.376c1.935,2.976,5.528,5.138,7.392,6.116  c-0.691,2.367-1.06,4.847-1.06,7.402c0,2.125,0.256,4.198,0.739,6.197l-0.002-0.001c0,0,0.008,0.032,0.025,0.092  c0.509,2.073,1.262,4.068,2.235,5.956c1.285,2.772,3.158,6.019,5.716,8.653c3.707,3.816,4.344,8.551,4.437,10.597v0.889  c0,0.038,0.004,0.076,0.006,0.114c-0.001,0.013-0.001,0.019-0.001,0.019l0.002-0.002c0.068,1.008,0.905,1.805,1.93,1.805h11.811  c1.069,0,1.936-0.867,1.936-1.936v-2.917c1.709,0.231,3.461,0.351,5.244,0.351c1.393,0,2.765-0.075,4.114-0.217v2.782  c0,1.069,0.867,1.936,1.936,1.936h11.811c1.069,0,1.936-0.867,1.936-1.936v-2.92c0.024-0.972,0.355-4.804,3.96-8.089  c0.171-0.146,0.341-0.293,0.508-0.441c0.014-0.012,0.028-0.024,0.043-0.036l-0.006,0.003c4.056-3.61,7.068-8.119,8.612-13.155h3.69  c1.303,0,2.36-1.056,2.36-2.36V52.962C91.64,51.659,90.583,50.602,89.28,50.602z M12.766,39.842  c1.014-4.325,4.857-2.003,4.683,0.507c-0.063,0.91-1.792,2.039-3.725,3.024C12.775,41.904,12.613,40.492,12.766,39.842z   M70.392,48.311c0-1.613,1.308-2.92,2.92-2.92c1.613,0,2.92,1.308,2.92,2.92c0,1.613-1.307,2.92-2.92,2.92  C71.699,51.232,70.392,49.924,70.392,48.311z M23.567,25.318c0-10.2,8.269-18.469,18.469-18.469s18.469,8.269,18.469,18.469  s-8.269,18.469-18.469,18.469S23.567,35.518,23.567,25.318z"></path>
  </g>
  <g id="SvgjsG1013" featurekey="VomJeJ-0"
    transform="matrix(5.489679752207167,0,0,5.489679752207167,116.70618940010824,-22.427771353866632)"
    fill="#fcfcfc">
    <path
      d="M6.18 14.440000000000001 l0 -0.26 q0 -1.12 -0.24 -1.63 t-0.9 -0.51 q-0.7 0 -0.98 0.69 t-0.28 2.29 q0 0.8 0.11 1.34 t0.32 0.87 t0.53 0.48 t0.76 0.15 q0.46 0 1.02 -0.2 t1.2 -0.64 q0.18 0.1 0.37 0.29 t0.35 0.43 t0.28 0.51 t0.18 0.51 q-0.66 0.7 -1.72 1.12 t-2.16 0.42 q-2.14 0 -3.28 -1.4 t-1.14 -3.98 q0 -1.32 0.37 -2.3 t0.98 -1.62 t1.4 -0.96 t1.65 -0.32 q0.88 0 1.61 0.24 t1.26 0.68 t0.82 1.05 t0.29 1.35 q0 0.84 -0.49 1.18 t-1.21 0.34 q-0.6 0 -1.1 -0.12 z M18.32 16.02 l-5.22 0 q0.04 0.9 0.46 1.4 t1.38 0.5 q0.48 0 1.11 -0.14 t1.45 -0.46 q0.66 0.68 0.82 1.84 q-1.6 1.14 -3.92 1.14 q-1.26 0 -2.11 -0.4 t-1.38 -1.12 t-0.75 -1.7 t-0.22 -2.14 q0 -1.12 0.27 -2.07 t0.82 -1.65 t1.4 -1.1 t1.99 -0.4 q0.96 0 1.73 0.32 t1.31 0.88 t0.83 1.34 t0.29 1.7 q0 1.22 -0.26 2.06 z M13.08 13.86 l2.64 0 l0 -0.22 q0 -0.74 -0.33 -1.22 t-0.99 -0.48 q-0.64 0 -0.95 0.45 t-0.37 1.47 z M29.080000000000002 13.4 l0 4.1 q0 1.32 0.48 1.98 q-0.76 0.68 -1.82 0.68 q-1.04 0 -1.42 -0.48 t-0.38 -1.46 l0 -4.26 q0 -0.68 -0.18 -1 t-0.7 -0.32 q-0.3 0 -0.68 0.16 t-0.78 0.52 l0 6.68 q-0.34 0.06 -0.74 0.09 t-0.82 0.03 t-0.82 -0.03 t-0.74 -0.09 l0 -9.98 l0.14 -0.14 l1.18 0 q1.22 0 1.64 1.2 q1.4 -1.24 2.78 -1.24 q1.4 0 2.13 0.97 t0.73 2.59 z M37.26 10 q0.12 0.56 0.12 1.12 t-0.12 1.1 l-2.38 -0.04 l0 4.6 q0 0.94 0.88 0.94 l1.12 0 q0.26 0.72 0.26 1.32 t-0.08 0.86 q-1.48 0.2 -2.72 0.2 q-2.52 0 -2.52 -2.78 l0 -5.12 l-1.56 0.02 q-0.14 -0.5 -0.14 -1.09 t0.14 -1.13 l1.56 0.04 l0 -1.16 q0 -1.02 0.39 -1.45 t1.31 -0.43 l1.22 0 l0.14 0.14 l0 2.9 z M38.12 19.32 q0.02 -0.52 0.27 -1.14 t0.59 -0.98 q1.6 0.84 2.78 0.84 q0.56 0 0.86 -0.19 t0.3 -0.51 q0 -0.6 -0.92 -0.9 l-1.1 -0.42 q-2.5 -0.92 -2.5 -3 q0 -1.52 1.05 -2.41 t2.83 -0.89 q0.88 0 1.94 0.25 t1.74 0.59 q0.04 0.56 -0.22 1.23 t-0.64 0.95 q-1.68 -0.76 -2.8 -0.76 q-0.4 0 -0.61 0.18 t-0.21 0.46 q0 0.48 0.76 0.76 l1.24 0.44 q2.66 0.94 2.66 3.22 q0 1.5 -1.1 2.38 t-3.14 0.88 t-3.78 -0.98 z"></path>
  </g>
</svg>